<svg xmlns="http://www.w3.org/2000/svg" xmlns:xlink="http://www.w3.org/1999/xlink" width="1800" zoomAndPan="magnify" viewBox="0 0 1350 307.91998" height="400" preserveAspectRatio="xMidYMid meet" version="1.0"><defs><clipPath id="010030f0dc"><path d="M 0.175781 0 L 1349.824219 0 L 1349.824219 299.921875 L 0.175781 299.921875 Z M 0.175781 0 " clip-rule="nonzero"/></clipPath><clipPath id="b3bfc57d54"><rect x="0" width="1350" y="0" height="300"/></clipPath></defs><g clip-path="url(#010030f0dc)"><g transform="matrix(1, 0, 0, 1, 0, 0)"><g clip-path="url(#b3bfc57d54)"><path fill="#3897f0" d="M 907.867188 60.34375 C 903.5 60.859375 900.835938 62.144531 895.730469 66.222656 C 887.960938 72.417969 876.722656 81.28125 875.40625 82.246094 C 875.082031 82.46875 866.027344 83.785156 851.355469 85.746094 C 847.46875 86.257812 843.582031 86.867188 842.683594 87.09375 C 836.9375 88.667969 832.183594 93.324219 830.160156 99.359375 C 829.871094 100.226562 829.359375 103.179688 829.003906 105.941406 C 827.398438 118.722656 825.503906 131.695312 825.183594 132.304688 C 824.863281 132.882812 816.644531 143.382812 813.433594 147.265625 C 804.957031 157.605469 803.253906 160.882812 803.253906 166.789062 C 803.253906 171.765625 804.667969 175.492188 808.261719 180.050781 C 811.089844 183.648438 818.152344 192.542969 821.910156 197.230469 C 824.511719 200.507812 825.472656 201.984375 825.601562 202.851562 C 825.730469 203.492188 826.660156 210.554688 827.753906 218.488281 C 828.972656 227.734375 829.90625 233.675781 830.355469 234.929688 C 832.121094 240.195312 837 245.011719 842.203125 246.617188 C 843.359375 246.96875 846.472656 247.546875 849.105469 247.867188 C 873.992188 251.113281 874.859375 251.238281 876.078125 252.105469 C 877.171875 252.878906 879.898438 255.027344 893.097656 265.527344 C 895.570312 267.488281 898.589844 269.765625 899.777344 270.570312 C 903.917969 273.332031 908.925781 274.390625 913.488281 273.429688 C 917.660156 272.5625 919.878906 271.148438 931.628906 261.804688 C 937.632812 257.050781 943.0625 252.75 943.734375 252.265625 C 944.828125 251.433594 945.5 251.304688 954.171875 250.117188 C 959.246094 249.441406 965.957031 248.574219 969.039062 248.1875 C 978.09375 247.097656 981.367188 245.8125 985.253906 241.929688 C 989.074219 238.074219 990.101562 235.378906 991.320312 225.710938 C 993.214844 210.941406 994.4375 202.398438 994.695312 201.757812 C 994.855469 201.371094 997.292969 198.195312 1000.089844 194.695312 C 1014.988281 176.070312 1014.3125 177 1015.789062 172.921875 C 1017.011719 169.648438 1017.171875 165.988281 1016.273438 162.488281 C 1015.148438 157.992188 1014.921875 157.640625 999.605469 138.535156 C 997.328125 135.707031 995.238281 133.042969 994.984375 132.59375 C 994.4375 131.757812 994.308594 130.988281 991.996094 113.488281 C 990.199219 99.90625 990.132812 99.617188 988.5625 96.40625 C 987.566406 94.316406 986.792969 93.289062 984.933594 91.523438 C 980.886719 87.703125 979.054688 87.0625 968.554688 85.710938 C 964.511719 85.167969 960.816406 84.683594 960.367188 84.589844 C 959.917969 84.492188 956.355469 84.011719 952.4375 83.464844 C 948.488281 82.949219 944.957031 82.339844 944.570312 82.148438 C 943.800781 81.761719 942.128906 80.445312 928.417969 69.527344 C 920.292969 63.042969 917.789062 61.46875 914.449219 60.699219 C 912.332031 60.21875 910.050781 60.121094 907.867188 60.34375 Z M 935.898438 129.445312 L 941.101562 133.84375 L 935.226562 140.8125 C 929.800781 147.300781 924.246094 154.011719 911.59375 169.328125 C 908.832031 172.699219 906.003906 176.070312 905.300781 176.90625 C 904.59375 177.707031 903.082031 179.507812 901.925781 180.917969 C 900.804688 182.332031 899.777344 183.550781 899.679688 183.648438 C 899.550781 183.746094 896.757812 187.117188 893.417969 191.195312 C 881.539062 205.644531 878.808594 208.949219 878.328125 209.335938 C 877.8125 209.753906 875.886719 208.019531 862.753906 195.367188 C 860.378906 193.054688 854.566406 187.535156 849.8125 183.070312 L 841.238281 174.945312 L 846.890625 168.84375 L 852.542969 162.777344 L 860.472656 170.417969 C 864.808594 174.625 870.234375 179.828125 872.515625 181.976562 L 876.65625 185.863281 L 884.011719 176.96875 C 891.203125 168.300781 904.144531 152.695312 920.519531 132.976562 L 928.609375 123.25 L 929.671875 124.148438 C 930.25 124.628906 933.074219 127.039062 935.898438 129.445312 Z M 968.941406 124.628906 C 969.617188 125.207031 970.515625 126.011719 970.964844 126.363281 C 976.421875 131.019531 979.472656 133.75 979.472656 133.941406 C 979.472656 134.230469 973.726562 141.230469 959.566406 158.25 C 950.15625 169.582031 941.90625 179.570312 933.265625 190.070312 C 932.207031 191.386719 930.667969 193.183594 929.863281 194.082031 C 929.0625 194.984375 926.171875 198.449219 923.441406 201.789062 C 920.710938 205.128906 917.949219 208.40625 917.339844 209.078125 L 916.214844 210.265625 L 910.789062 205.484375 C 907.773438 202.851562 905.074219 200.410156 904.722656 200.089844 C 904.078125 199.414062 904.078125 199.414062 919.425781 181.078125 C 920.519531 179.761719 922.863281 176.9375 924.628906 174.816406 C 926.363281 172.699219 931.339844 166.695312 935.675781 161.492188 C 940.011719 156.289062 948.230469 146.367188 953.945312 139.496094 C 967.527344 123.089844 967.109375 123.601562 967.433594 123.601562 C 967.59375 123.601562 968.265625 124.082031 968.941406 124.628906 Z M 968.941406 124.628906 " fill-opacity="1" fill-rule="nonzero"/><path fill="#000000" d="M 287.609375 87.679688 C 275.011719 92.054688 276.9375 89.253906 233.71875 165.542969 C 206.421875 214.011719 197.148438 230.460938 197.148438 231.335938 C 197.148438 231.683594 202.222656 232.035156 208.347656 232.035156 C 217.445312 232.035156 219.722656 231.507812 220.597656 228.886719 C 221.296875 227.308594 227.945312 214.886719 235.46875 201.414062 C 242.992188 187.941406 257.339844 162.394531 267.3125 144.546875 C 285.335938 112.527344 292.335938 102.554688 297.585938 102.554688 C 303.183594 102.554688 309.65625 111.652344 329.082031 145.773438 L 349.027344 181.292969 L 271.511719 181.292969 L 266.613281 189.164062 C 263.988281 193.539062 261.890625 197.566406 261.890625 197.914062 C 261.890625 198.4375 283.761719 198.964844 310.359375 199.140625 L 358.824219 199.664062 L 367.925781 215.410156 L 377.023438 231.160156 L 388.570312 231.683594 L 400.121094 232.210938 L 394.171875 222.0625 C 391.019531 216.460938 374.398438 187.066406 357.25 156.796875 C 339.929688 126.523438 323.132812 98.878906 319.632812 95.378906 C 314.03125 89.605469 303.707031 84.878906 296.886719 85.054688 C 295.484375 85.230469 291.285156 86.28125 287.609375 87.679688 Z M 287.609375 87.679688 " fill-opacity="1" fill-rule="nonzero"/><path fill="#000000" d="M 677.804688 87.15625 C 673.605469 88.203125 669.058594 91.53125 665.03125 96.253906 C 661.53125 100.101562 642.285156 132.296875 622.339844 167.644531 L 585.945312 232.035156 L 607.816406 232.035156 L 622.339844 206.136719 C 677.980469 107.101562 680.953125 102.554688 688.304688 102.554688 C 693.203125 102.554688 700.378906 112.351562 714.898438 138.421875 C 722.949219 152.769531 731.871094 168.34375 734.496094 172.894531 L 739.570312 181.292969 L 660.832031 181.292969 L 655.582031 189.515625 L 650.507812 197.914062 L 699.851562 198.4375 L 749.195312 198.964844 L 758.644531 215.410156 L 768.269531 232.035156 L 779.464844 232.035156 C 785.589844 232.035156 790.140625 231.507812 789.789062 230.632812 C 789.441406 229.933594 779.992188 213.664062 768.96875 194.414062 C 757.945312 175.167969 741.144531 145.773438 731.699219 129.148438 C 722.25 112.351562 712.277344 96.605469 709.652344 93.804688 C 707.027344 91.179688 701.253906 88.203125 696.878906 86.980469 C 687.953125 84.707031 686.902344 84.707031 677.804688 87.15625 Z M 677.804688 87.15625 " fill-opacity="1" fill-rule="nonzero"/><path fill="#000000" d="M 36.171875 159.246094 L 36.171875 232.035156 L 55.246094 232.035156 L 55.769531 207.886719 L 56.292969 183.917969 L 110.1875 183.566406 C 172.476562 183.214844 178.425781 182.339844 191.199219 170.441406 C 201.347656 161.167969 205.023438 149.445312 203.625 130.550781 C 202.222656 109.726562 195.75 99.578125 178.777344 91.703125 C 170.203125 87.679688 168.628906 87.679688 103.1875 87.15625 L 36.171875 86.628906 Z M 173.703125 110.425781 C 189.976562 123.726562 188.226562 153.644531 170.378906 163.445312 C 165.480469 166.070312 158.128906 166.417969 110.1875 166.945312 L 55.417969 167.46875 L 55.417969 104.128906 L 111.238281 104.652344 L 167.054688 105.175781 Z M 173.703125 110.425781 " fill-opacity="1" fill-rule="nonzero"/><path fill="#000000" d="M 417.617188 159.246094 L 417.617188 232.035156 L 436.863281 232.035156 L 436.863281 183.042969 L 468.886719 183.042969 L 500.730469 182.867188 L 547.972656 232.210938 L 560.574219 231.683594 L 573.171875 231.160156 L 550.773438 207.539062 L 528.203125 183.917969 L 537.125 181.117188 C 556.371094 175.34375 564.421875 168.167969 568.972656 152.945312 C 572.121094 141.921875 572.296875 132.824219 569.144531 119.699219 C 565.996094 106.402344 559.871094 98.703125 547.625 92.578125 L 537.476562 87.679688 L 477.632812 87.15625 L 417.617188 86.628906 Z M 536.601562 108.152344 C 548.675781 114.453125 551.472656 119.527344 551.472656 135.796875 C 551.472656 152.070312 548.675781 157.144531 536.601562 163.269531 C 529.078125 167.117188 527.152344 167.292969 482.882812 167.292969 L 436.863281 167.292969 L 436.863281 104.304688 L 482.882812 104.304688 C 527.152344 104.304688 529.078125 104.476562 536.601562 108.152344 Z M 536.601562 108.152344 " fill-opacity="1" fill-rule="nonzero"/><path fill="#000000" d="M 1052.691406 80.832031 L 1049.261719 81.152344 L 1049.261719 144.402344 C 1049.261719 188.75 1049.5 209.007812 1050.136719 212.199219 C 1052.054688 221.53125 1058.917969 229.109375 1068.253906 232.300781 C 1072.324219 233.65625 1075.757812 233.816406 1103.53125 234.054688 C 1120.449219 234.214844 1146.546875 234.132812 1161.632812 233.816406 L 1188.925781 233.257812 L 1188.925781 214.191406 L 1160.832031 214.832031 C 1115.742188 215.867188 1078.949219 215.628906 1075.359375 214.433594 C 1069.210938 212.199219 1069.613281 216.824219 1069.371094 144.722656 L 1069.132812 80.273438 L 1062.589844 80.433594 C 1058.996094 80.511719 1054.527344 80.671875 1052.691406 80.832031 Z M 1052.691406 80.832031 " fill-opacity="1" fill-rule="nonzero"/><path fill="#000000" d="M 1324.761719 81.070312 C 1320.292969 81.3125 1316.300781 81.867188 1315.902344 82.347656 C 1315.582031 82.746094 1302.734375 98.699219 1287.410156 117.761719 C 1272.085938 136.824219 1257.164062 155.410156 1254.210938 159.078125 L 1248.863281 165.699219 L 1215.34375 123.902344 C 1186.132812 87.371094 1181.582031 82.027344 1179.347656 81.550781 C 1176.078125 80.910156 1156.203125 80.910156 1156.203125 81.550781 C 1156.203125 82.1875 1169.691406 99.175781 1207.203125 146.078125 C 1243.117188 190.742188 1239.046875 182.207031 1239.125 213.636719 L 1239.207031 234.132812 L 1245.03125 233.734375 C 1248.144531 233.496094 1252.695312 233.175781 1255.007812 232.9375 L 1259.15625 232.539062 L 1259.15625 185.480469 L 1262.03125 181.730469 C 1263.546875 179.65625 1282.144531 156.367188 1303.292969 129.886719 C 1324.441406 103.40625 1341.921875 81.46875 1342 81.070312 C 1342.320312 80.195312 1337.851562 80.195312 1324.761719 81.070312 Z M 1324.761719 81.070312 " fill-opacity="1" fill-rule="nonzero"/></g></g></g></svg>