<svg xmlns="http://www.w3.org/2000/svg" xmlns:xlink="http://www.w3.org/1999/xlink" width="1800" zoomAndPan="magnify" viewBox="0 0 1350 307.91998" height="400" preserveAspectRatio="xMidYMid meet" version="1.0"><defs><clipPath id="6845392f16"><path d="M 35 18 L 1349.824219 18 L 1349.824219 288 L 35 288 Z M 35 18 " clip-rule="nonzero"/></clipPath><clipPath id="d9454c804a"><rect x="0" width="1315" y="0" height="270"/></clipPath></defs><g clip-path="url(#6845392f16)"><g transform="matrix(1, 0, 0, 1, 35, 18)"><g clip-path="url(#d9454c804a)"><path fill="#3897f0" d="M 872.867188 42.34375 C 868.5 42.859375 865.835938 44.144531 860.730469 48.222656 C 852.960938 54.417969 841.722656 63.28125 840.40625 64.246094 C 840.082031 64.46875 831.027344 65.785156 816.355469 67.746094 C 812.46875 68.257812 808.582031 68.867188 807.683594 69.09375 C 801.9375 70.667969 797.183594 75.324219 795.160156 81.359375 C 794.871094 82.226562 794.359375 85.179688 794.003906 87.941406 C 792.398438 100.722656 790.503906 113.695312 790.183594 114.304688 C 789.863281 114.882812 781.644531 125.382812 778.433594 129.265625 C 769.957031 139.605469 768.253906 142.882812 768.253906 148.789062 C 768.253906 153.765625 769.667969 157.492188 773.261719 162.050781 C 776.089844 165.648438 783.152344 174.542969 786.910156 179.230469 C 789.511719 182.507812 790.472656 183.984375 790.601562 184.851562 C 790.730469 185.492188 791.660156 192.554688 792.753906 200.488281 C 793.972656 209.734375 794.90625 215.675781 795.355469 216.929688 C 797.121094 222.195312 802 227.011719 807.203125 228.617188 C 808.359375 228.96875 811.472656 229.546875 814.105469 229.867188 C 838.992188 233.113281 839.859375 233.238281 841.078125 234.105469 C 842.171875 234.878906 844.898438 237.027344 858.097656 247.527344 C 860.570312 249.488281 863.589844 251.765625 864.777344 252.570312 C 868.917969 255.332031 873.925781 256.390625 878.488281 255.429688 C 882.660156 254.5625 884.878906 253.148438 896.628906 243.804688 C 902.632812 239.050781 908.0625 234.75 908.734375 234.265625 C 909.828125 233.433594 910.5 233.304688 919.171875 232.117188 C 924.246094 231.441406 930.957031 230.574219 934.039062 230.1875 C 943.09375 229.097656 946.367188 227.8125 950.253906 223.929688 C 954.074219 220.074219 955.101562 217.378906 956.320312 207.710938 C 958.214844 192.941406 959.4375 184.398438 959.695312 183.757812 C 959.855469 183.371094 962.292969 180.195312 965.089844 176.695312 C 979.988281 158.070312 979.3125 159 980.789062 154.921875 C 982.011719 151.648438 982.171875 147.988281 981.273438 144.488281 C 980.148438 139.992188 979.921875 139.640625 964.605469 120.535156 C 962.328125 117.707031 960.238281 115.042969 959.984375 114.59375 C 959.4375 113.757812 959.308594 112.988281 956.996094 95.488281 C 955.199219 81.90625 955.132812 81.617188 953.5625 78.40625 C 952.566406 76.316406 951.792969 75.289062 949.933594 73.523438 C 945.886719 69.703125 944.054688 69.0625 933.554688 67.710938 C 929.511719 67.167969 925.816406 66.683594 925.367188 66.589844 C 924.917969 66.492188 921.355469 66.011719 917.4375 65.464844 C 913.488281 64.949219 909.957031 64.339844 909.570312 64.148438 C 908.800781 63.761719 907.128906 62.445312 893.417969 51.527344 C 885.292969 45.042969 882.789062 43.46875 879.449219 42.699219 C 877.332031 42.21875 875.050781 42.121094 872.867188 42.34375 Z M 900.898438 111.445312 L 906.101562 115.84375 L 900.226562 122.8125 C 894.800781 129.300781 889.246094 136.011719 876.59375 151.328125 C 873.832031 154.699219 871.003906 158.070312 870.300781 158.90625 C 869.59375 159.707031 868.082031 161.507812 866.925781 162.917969 C 865.804688 164.332031 864.777344 165.550781 864.679688 165.648438 C 864.550781 165.746094 861.757812 169.117188 858.417969 173.195312 C 846.539062 187.644531 843.808594 190.949219 843.328125 191.335938 C 842.8125 191.753906 840.886719 190.019531 827.753906 177.367188 C 825.378906 175.054688 819.566406 169.535156 814.8125 165.070312 L 806.238281 156.945312 L 811.890625 150.84375 L 817.542969 144.777344 L 825.472656 152.417969 C 829.808594 156.625 835.234375 161.828125 837.515625 163.976562 L 841.65625 167.863281 L 849.011719 158.96875 C 856.203125 150.300781 869.144531 134.695312 885.519531 114.976562 L 893.609375 105.25 L 894.671875 106.148438 C 895.25 106.628906 898.074219 109.039062 900.898438 111.445312 Z M 933.941406 106.628906 C 934.617188 107.207031 935.515625 108.011719 935.964844 108.363281 C 941.421875 113.019531 944.472656 115.75 944.472656 115.941406 C 944.472656 116.230469 938.726562 123.230469 924.566406 140.25 C 915.15625 151.582031 906.90625 161.570312 898.265625 172.070312 C 897.207031 173.386719 895.667969 175.183594 894.863281 176.082031 C 894.0625 176.984375 891.171875 180.449219 888.441406 183.789062 C 885.710938 187.128906 882.949219 190.40625 882.339844 191.078125 L 881.214844 192.265625 L 875.789062 187.484375 C 872.773438 184.851562 870.074219 182.410156 869.722656 182.089844 C 869.078125 181.414062 869.078125 181.414062 884.425781 163.078125 C 885.519531 161.761719 887.863281 158.9375 889.628906 156.816406 C 891.363281 154.699219 896.339844 148.695312 900.675781 143.492188 C 905.011719 138.289062 913.230469 128.367188 918.945312 121.496094 C 932.527344 105.089844 932.109375 105.601562 932.433594 105.601562 C 932.59375 105.601562 933.265625 106.082031 933.941406 106.628906 Z M 933.941406 106.628906 " fill-opacity="1" fill-rule="nonzero"/><path fill="#ffffff" d="M 252.480469 69.375 C 239.882812 73.75 241.808594 70.953125 198.597656 147.226562 C 171.304688 195.683594 162.035156 212.128906 162.035156 213.003906 C 162.035156 213.355469 167.109375 213.703125 173.230469 213.703125 C 182.328125 213.703125 184.601562 213.179688 185.476562 210.554688 C 186.175781 208.980469 192.824219 196.558594 200.347656 183.089844 C 207.867188 169.617188 222.214844 144.078125 232.1875 126.234375 C 250.203125 94.21875 257.203125 84.246094 262.449219 84.246094 C 268.050781 84.246094 274.523438 93.34375 293.941406 127.457031 L 313.882812 162.972656 L 236.382812 162.972656 L 231.484375 170.84375 C 228.863281 175.21875 226.761719 179.242188 226.761719 179.589844 C 226.761719 180.117188 248.628906 180.640625 275.222656 180.816406 L 323.679688 181.339844 L 332.777344 197.085938 L 341.875 212.828125 L 353.421875 213.355469 L 364.96875 213.878906 L 359.019531 203.734375 C 355.871094 198.132812 339.25 168.742188 322.105469 138.480469 C 304.785156 108.214844 287.992188 80.574219 284.492188 77.074219 C 278.894531 71.300781 268.574219 66.578125 261.75 66.753906 C 260.351562 66.925781 256.152344 67.976562 252.480469 69.375 Z M 252.480469 69.375 " fill-opacity="1" fill-rule="nonzero"/><path fill="#ffffff" d="M 642.601562 68.851562 C 638.402344 69.902344 633.851562 73.226562 629.828125 77.949219 C 626.332031 81.796875 607.085938 113.988281 587.144531 149.324219 L 550.753906 213.703125 L 572.625 213.703125 L 587.144531 187.8125 C 642.773438 88.796875 645.75 84.246094 653.097656 84.246094 C 657.996094 84.246094 665.167969 94.042969 679.6875 120.109375 C 687.734375 134.457031 696.65625 150.023438 699.28125 154.574219 L 704.355469 162.972656 L 625.632812 162.972656 L 620.382812 171.191406 L 615.308594 179.589844 L 664.644531 180.117188 L 713.976562 180.640625 L 723.421875 197.085938 L 733.046875 213.703125 L 744.242188 213.703125 C 750.363281 213.703125 754.914062 213.179688 754.5625 212.304688 C 754.214844 211.605469 744.765625 195.335938 733.746094 176.089844 C 722.722656 156.847656 705.929688 127.457031 696.484375 110.839844 C 687.035156 94.042969 677.0625 78.300781 674.441406 75.5 C 671.816406 72.875 666.042969 69.902344 661.667969 68.675781 C 652.746094 66.402344 651.699219 66.402344 642.601562 68.851562 Z M 642.601562 68.851562 " fill-opacity="1" fill-rule="nonzero"/><path fill="#ffffff" d="M 1.085938 140.929688 L 1.085938 213.703125 L 20.15625 213.703125 L 20.679688 189.5625 L 21.207031 165.59375 L 75.085938 165.246094 C 137.367188 164.894531 143.316406 164.019531 156.085938 152.125 C 166.234375 142.851562 169.90625 131.132812 168.507812 112.238281 C 167.109375 91.417969 160.632812 81.273438 143.664062 73.402344 C 135.09375 69.375 133.519531 69.375 68.089844 68.851562 L 1.085938 68.328125 Z M 138.59375 92.121094 C 154.863281 105.414062 153.113281 135.332031 135.269531 145.125 C 130.371094 147.75 123.023438 148.101562 75.085938 148.625 L 20.332031 149.152344 L 20.332031 85.820312 L 76.136719 86.347656 L 131.945312 86.871094 Z M 138.59375 92.121094 " fill-opacity="1" fill-rule="nonzero"/><path fill="#ffffff" d="M 382.460938 140.929688 L 382.460938 213.703125 L 401.703125 213.703125 L 401.703125 164.71875 L 433.71875 164.71875 L 465.558594 164.546875 L 489.175781 189.210938 L 512.792969 213.878906 L 525.390625 213.355469 L 537.984375 212.828125 L 515.59375 189.210938 L 493.023438 165.59375 L 501.945312 162.796875 C 521.191406 157.023438 529.238281 149.851562 533.785156 134.628906 C 536.933594 123.609375 537.109375 114.511719 533.960938 101.390625 C 530.8125 88.097656 524.6875 80.398438 512.445312 74.273438 L 502.296875 69.375 L 442.464844 68.851562 L 382.460938 68.328125 Z M 501.421875 89.84375 C 513.492188 96.144531 516.292969 101.214844 516.292969 117.484375 C 516.292969 133.753906 513.492188 138.828125 501.421875 144.953125 C 493.898438 148.800781 491.976562 148.976562 447.714844 148.976562 L 401.703125 148.976562 L 401.703125 85.996094 L 447.714844 85.996094 C 491.976562 85.996094 493.898438 86.171875 501.421875 89.84375 Z M 501.421875 89.84375 " fill-opacity="1" fill-rule="nonzero"/><path fill="#ffffff" d="M 1017.734375 62.9375 L 1014.300781 63.257812 L 1014.300781 126.546875 C 1014.300781 170.921875 1014.542969 191.195312 1015.179688 194.386719 C 1017.09375 203.722656 1023.960938 211.304688 1033.296875 214.5 C 1037.367188 215.855469 1040.800781 216.015625 1068.574219 216.253906 C 1085.492188 216.414062 1111.59375 216.335938 1126.675781 216.015625 L 1153.972656 215.457031 L 1153.972656 196.382812 L 1125.878906 197.019531 C 1080.785156 198.058594 1043.992188 197.816406 1040.402344 196.621094 C 1034.253906 194.386719 1034.652344 199.015625 1034.414062 126.867188 L 1034.175781 62.378906 L 1027.628906 62.539062 C 1024.039062 62.617188 1019.570312 62.777344 1017.734375 62.9375 Z M 1017.734375 62.9375 " fill-opacity="1" fill-rule="nonzero"/><path fill="#ffffff" d="M 1289.808594 63.175781 C 1285.339844 63.414062 1281.351562 63.976562 1280.953125 64.453125 C 1280.632812 64.851562 1267.78125 80.816406 1252.457031 99.890625 C 1237.136719 118.964844 1222.210938 137.5625 1219.257812 141.230469 L 1213.910156 147.855469 L 1180.390625 106.035156 C 1151.179688 69.480469 1146.628906 64.132812 1144.394531 63.65625 C 1141.121094 63.015625 1121.25 63.015625 1121.25 63.65625 C 1121.25 64.292969 1134.738281 81.292969 1172.25 128.222656 C 1208.164062 172.917969 1204.09375 164.378906 1204.171875 195.824219 L 1204.253906 216.335938 L 1210.078125 215.933594 C 1213.191406 215.695312 1217.742188 215.375 1220.054688 215.136719 L 1224.207031 214.738281 L 1224.207031 167.648438 L 1227.078125 163.898438 C 1228.59375 161.824219 1247.191406 138.519531 1268.339844 112.019531 C 1289.492188 85.523438 1306.96875 63.574219 1307.050781 63.175781 C 1307.367188 62.296875 1302.898438 62.296875 1289.808594 63.175781 Z M 1289.808594 63.175781 " fill-opacity="1" fill-rule="nonzero"/></g></g></g></svg>